<?xml version="1.0" standalone="no"?>
<!DOCTYPE svg PUBLIC "-//W3C//DTD SVG 20010904//EN"
 "http://www.w3.org/TR/2001/REC-SVG-20010904/DTD/svg10.dtd">
<svg version="1.0" xmlns="http://www.w3.org/2000/svg"
 width="600.000000pt" height="600.000000pt" viewBox="0 0 600.000000 600.000000"
 preserveAspectRatio="xMidYMid meet">
<metadata>
Created by potrace 1.11, written by Peter Selinger 2001-2013
</metadata>
<g transform="translate(0.000000,600.000000) scale(0.100000,-0.100000)"
fill="#000000" stroke="none">
<path d="M1178 4295 c-1 -2 -19 -6 -40 -9 -43 -7 -108 -31 -204 -78 -192 -94
-319 -219 -461 -456 -105 -175 -110 -194 -113 -479 -1 -73 -3 -133 -5 -133 -2
0 -9 17 -15 38 -6 20 -15 46 -20 57 -5 11 -23 58 -40 105 -18 47 -40 108 -50
135 -10 28 -24 67 -32 89 -14 41 -52 86 -74 86 -19 0 -44 -42 -40 -65 2 -11
24 -69 49 -130 24 -60 50 -128 57 -150 47 -147 215 -507 259 -552 42 -44 79
-53 102 -24 17 21 17 24 -8 89 -67 174 -84 258 -82 417 1 135 18 266 43 343
43 129 136 271 247 377 143 137 230 192 382 243 48 16 94 35 102 42 16 14 20
36 7 44 -11 7 -59 15 -64 11z"/>
<path d="M2038 3794 c-2 -1 -24 -5 -50 -8 -96 -13 -178 -63 -178 -109 0 -45
77 -89 105 -61 8 9 13 20 10 24 -9 15 40 40 91 47 89 12 245 7 364 -11 103
-16 189 -100 230 -224 17 -50 19 -78 15 -232 -2 -96 -6 -188 -9 -205 -2 -16
-7 -55 -11 -85 -30 -270 -221 -624 -426 -788 -272 -218 -509 -313 -689 -278
-54 11 -133 58 -148 89 -16 33 -22 34 -50 4 -20 -21 -20 -25 -7 -50 28 -54
105 -107 192 -134 68 -21 76 -21 126 -11 20 5 54 11 75 14 65 10 212 63 306
111 168 86 349 227 453 352 102 124 221 403 262 613 19 96 22 122 36 238 10
86 4 295 -11 365 -13 59 -51 131 -97 181 -73 80 -188 128 -357 150 -54 6 -227
13 -232 8z"/>
<path d="M3390 3741 c-5 -10 -8 -28 -5 -39 2 -11 6 -58 10 -104 3 -46 8 -96
10 -113 2 -16 7 -61 10 -100 3 -38 8 -88 10 -110 2 -22 7 -71 10 -110 4 -38 8
-86 10 -105 2 -19 7 -71 10 -115 9 -115 20 -150 57 -173 52 -33 113 1 87 49
-6 11 -12 28 -14 37 -4 24 -35 277 -39 332 -12 133 -17 190 -21 235 -2 28 -5
87 -6 132 0 52 -6 88 -15 100 -7 10 -14 30 -14 45 0 29 -18 44 -63 52 -19 3
-30 -1 -37 -13z"/>
<path d="M3220 3740 c-12 -7 -15 -30 -14 -102 0 -86 10 -317 19 -468 3 -36 7
-111 9 -167 6 -119 11 -145 39 -195 29 -53 65 -56 115 -9 29 29 28 43 -8 63
-16 9 -29 24 -28 35 1 17 -2 66 -18 318 -7 123 -11 198 -19 345 -7 147 -8 150
-33 143 -15 -3 -21 2 -26 21 -7 28 -13 31 -36 16z"/>
<path d="M2203 3428 c-5 -7 -11 -44 -12 -83 -1 -38 -3 -92 -5 -120 -21 -261
-21 -259 27 -279 60 -25 70 -11 72 95 2 81 7 167 20 309 4 46 -8 65 -46 79
-40 14 -44 14 -56 -1z"/>
<path d="M907 3256 c-112 -32 -168 -184 -130 -349 45 -197 181 -285 350 -225
65 23 107 51 174 115 49 47 53 47 63 -4 21 -98 140 -120 225 -43 l33 31 43
-40 c102 -94 226 -43 308 129 27 56 31 77 33 156 3 135 -27 192 -118 218 -78
23 -131 4 -198 -71 -47 -53 -70 -100 -106 -212 -28 -84 -66 -147 -96 -157 -27
-8 -32 0 -28 48 4 62 4 215 0 272 -6 76 -21 85 -127 80 -68 -4 -95 -2 -118 10
-38 20 -59 20 -102 0 -34 -17 -34 -17 -67 15 -37 36 -80 44 -139 27z m73 -114
c0 -57 -63 -148 -82 -119 -31 49 31 182 75 160 4 -2 7 -21 7 -41z m916 3 c26
-40 22 -141 -9 -209 -28 -60 -88 -140 -112 -150 -45 -17 -66 33 -61 147 4 95
17 142 48 178 56 62 107 76 134 34z m-754 -10 c24 -21 39 -25 81 -24 42 2 53
-2 70 -22 25 -31 18 -111 -13 -166 -40 -70 -193 -173 -256 -173 -45 0 -96 38
-107 80 -5 19 -14 41 -20 49 -23 27 -16 41 19 41 19 0 35 -1 37 -2 6 -5 77 50
100 77 24 29 38 75 43 135 2 39 5 39 46 5z"/>
<path d="M3775 3233 c-91 -48 -145 -141 -149 -258 -4 -126 39 -212 117 -233
67 -19 148 10 184 64 19 29 28 30 56 3 60 -57 168 -50 269 16 34 23 36 27 35
74 -2 49 -9 62 -22 41 -12 -20 -107 -61 -154 -67 -43 -5 -49 -3 -64 20 -9 15
-19 43 -22 64 -3 21 -8 44 -11 52 -3 8 -5 52 -5 97 0 96 -7 106 -75 110 -24 1
-55 9 -69 18 -30 20 -51 20 -90 -1z m61 -118 c9 -8 24 -15 35 -15 24 0 25 -29
4 -117 -20 -85 -61 -153 -91 -153 -54 0 -48 220 7 287 15 17 27 16 45 -2z"/>
<path d="M2882 3203 c-86 -45 -143 -164 -143 -301 -1 -72 33 -167 68 -189 51
-34 129 -9 193 62 65 71 58 67 84 50 19 -13 28 -13 50 -4 29 13 35 29 11 29
-9 0 -15 9 -15 25 0 15 -7 40 -16 58 -11 20 -18 62 -19 118 -2 51 -8 95 -16
108 -32 51 -137 75 -197 44z m94 -109 c10 -37 -2 -146 -21 -190 -21 -50 -62
-104 -80 -104 -35 0 -39 148 -5 211 27 54 72 109 87 109 7 0 16 -12 19 -26z"/>
<path d="M4705 3171 c-3 -6 -16 -11 -27 -11 -46 0 -137 -103 -145 -164 -7 -58
-4 -95 10 -122 75 -143 274 -161 367 -33 94 130 5 315 -161 336 -21 3 -40 0
-44 -6z"/>
<path d="M5295 3102 c-55 -12 -85 -35 -109 -86 -23 -46 -24 -56 -15 -101 12
-55 38 -83 104 -115 51 -25 86 -25 135 0 54 27 68 53 76 136 l7 71 -37 41
c-21 23 -45 44 -54 46 -27 9 -85 13 -107 8z"/>
<path d="M5771 3041 c-43 -23 -60 -54 -54 -100 11 -82 60 -135 125 -133 79 2
129 102 89 180 -33 64 -98 86 -160 53z"/>
</g>
</svg>
